<mxfile host="Electron" agent="Mozilla/5.0 (Windows NT 10.0; Win64; x64) AppleWebKit/537.36 (KHTML, like Gecko) draw.io/24.7.17 Chrome/128.0.6613.36 Electron/32.0.1 Safari/537.36" version="24.7.17" pages="3">
  <diagram id="prtHgNgQTEPvFCAcTncT" name="Page-1">
    <mxGraphModel dx="1036" dy="606" grid="1" gridSize="10" guides="1" tooltips="1" connect="1" arrows="1" fold="1" page="1" pageScale="1" pageWidth="827" pageHeight="1169" math="0" shadow="0">
      <root>
        <mxCell id="0" />
        <mxCell id="1" parent="0" />
        <mxCell id="RqfBfrFVOrgx133IJ6Qx-4" value="" style="edgeStyle=orthogonalEdgeStyle;rounded=0;orthogonalLoop=1;jettySize=auto;html=1;" parent="1" source="RqfBfrFVOrgx133IJ6Qx-2" target="RqfBfrFVOrgx133IJ6Qx-3" edge="1">
          <mxGeometry relative="1" as="geometry" />
        </mxCell>
        <mxCell id="RqfBfrFVOrgx133IJ6Qx-2" value="1 - 9&amp;nbsp;" style="ellipse;whiteSpace=wrap;html=1;aspect=fixed;" parent="1" vertex="1">
          <mxGeometry x="330" y="10" width="80" height="80" as="geometry" />
        </mxCell>
        <mxCell id="RqfBfrFVOrgx133IJ6Qx-6" value="" style="edgeStyle=orthogonalEdgeStyle;rounded=0;orthogonalLoop=1;jettySize=auto;html=1;" parent="1" source="RqfBfrFVOrgx133IJ6Qx-3" target="RqfBfrFVOrgx133IJ6Qx-5" edge="1">
          <mxGeometry relative="1" as="geometry" />
        </mxCell>
        <mxCell id="RqfBfrFVOrgx133IJ6Qx-9" value="" style="edgeStyle=orthogonalEdgeStyle;rounded=0;orthogonalLoop=1;jettySize=auto;html=1;" parent="1" source="RqfBfrFVOrgx133IJ6Qx-3" target="RqfBfrFVOrgx133IJ6Qx-8" edge="1">
          <mxGeometry relative="1" as="geometry" />
        </mxCell>
        <mxCell id="RqfBfrFVOrgx133IJ6Qx-3" value="10" style="ellipse;whiteSpace=wrap;html=1;" parent="1" vertex="1">
          <mxGeometry x="330" y="120" width="80" height="80" as="geometry" />
        </mxCell>
        <mxCell id="RqfBfrFVOrgx133IJ6Qx-12" value="" style="edgeStyle=orthogonalEdgeStyle;rounded=0;orthogonalLoop=1;jettySize=auto;html=1;" parent="1" source="RqfBfrFVOrgx133IJ6Qx-5" target="RqfBfrFVOrgx133IJ6Qx-11" edge="1">
          <mxGeometry relative="1" as="geometry" />
        </mxCell>
        <mxCell id="RqfBfrFVOrgx133IJ6Qx-5" value="11" style="ellipse;whiteSpace=wrap;html=1;" parent="1" vertex="1">
          <mxGeometry x="170" y="120" width="80" height="80" as="geometry" />
        </mxCell>
        <mxCell id="RqfBfrFVOrgx133IJ6Qx-7" value="TRUE" style="text;html=1;align=center;verticalAlign=middle;resizable=0;points=[];autosize=1;strokeColor=none;fillColor=none;" parent="1" vertex="1">
          <mxGeometry x="260" y="138" width="60" height="30" as="geometry" />
        </mxCell>
        <mxCell id="RqfBfrFVOrgx133IJ6Qx-16" value="" style="edgeStyle=orthogonalEdgeStyle;rounded=0;orthogonalLoop=1;jettySize=auto;html=1;" parent="1" source="RqfBfrFVOrgx133IJ6Qx-8" target="RqfBfrFVOrgx133IJ6Qx-15" edge="1">
          <mxGeometry relative="1" as="geometry">
            <Array as="points">
              <mxPoint x="500" y="200" />
            </Array>
          </mxGeometry>
        </mxCell>
        <mxCell id="RqfBfrFVOrgx133IJ6Qx-18" value="" style="edgeStyle=orthogonalEdgeStyle;rounded=0;orthogonalLoop=1;jettySize=auto;html=1;" parent="1" source="RqfBfrFVOrgx133IJ6Qx-8" target="RqfBfrFVOrgx133IJ6Qx-17" edge="1">
          <mxGeometry relative="1" as="geometry">
            <Array as="points">
              <mxPoint x="730" y="180" />
            </Array>
          </mxGeometry>
        </mxCell>
        <mxCell id="RqfBfrFVOrgx133IJ6Qx-8" value="13" style="ellipse;whiteSpace=wrap;html=1;" parent="1" vertex="1">
          <mxGeometry x="550" y="120" width="80" height="80" as="geometry" />
        </mxCell>
        <mxCell id="RqfBfrFVOrgx133IJ6Qx-10" value="FALSE" style="text;html=1;align=center;verticalAlign=middle;resizable=0;points=[];autosize=1;strokeColor=none;fillColor=none;" parent="1" vertex="1">
          <mxGeometry x="410" y="138" width="60" height="30" as="geometry" />
        </mxCell>
        <mxCell id="RqfBfrFVOrgx133IJ6Qx-14" value="" style="edgeStyle=orthogonalEdgeStyle;rounded=0;orthogonalLoop=1;jettySize=auto;html=1;" parent="1" source="RqfBfrFVOrgx133IJ6Qx-11" target="RqfBfrFVOrgx133IJ6Qx-13" edge="1">
          <mxGeometry relative="1" as="geometry">
            <Array as="points">
              <mxPoint x="210" y="545" />
            </Array>
          </mxGeometry>
        </mxCell>
        <mxCell id="RqfBfrFVOrgx133IJ6Qx-11" value="21" style="ellipse;whiteSpace=wrap;html=1;" parent="1" vertex="1">
          <mxGeometry x="170" y="330" width="80" height="80" as="geometry" />
        </mxCell>
        <mxCell id="RqfBfrFVOrgx133IJ6Qx-13" value="22 - 23" style="ellipse;whiteSpace=wrap;html=1;" parent="1" vertex="1">
          <mxGeometry x="330" y="505" width="80" height="80" as="geometry" />
        </mxCell>
        <mxCell id="RqfBfrFVOrgx133IJ6Qx-22" value="" style="edgeStyle=orthogonalEdgeStyle;rounded=0;orthogonalLoop=1;jettySize=auto;html=1;" parent="1" source="RqfBfrFVOrgx133IJ6Qx-15" target="RqfBfrFVOrgx133IJ6Qx-21" edge="1">
          <mxGeometry relative="1" as="geometry" />
        </mxCell>
        <mxCell id="RqfBfrFVOrgx133IJ6Qx-15" value="14" style="ellipse;whiteSpace=wrap;html=1;" parent="1" vertex="1">
          <mxGeometry x="460" y="210" width="80" height="80" as="geometry" />
        </mxCell>
        <mxCell id="RqfBfrFVOrgx133IJ6Qx-25" value="" style="edgeStyle=orthogonalEdgeStyle;rounded=0;orthogonalLoop=1;jettySize=auto;html=1;" parent="1" source="RqfBfrFVOrgx133IJ6Qx-17" target="RqfBfrFVOrgx133IJ6Qx-24" edge="1">
          <mxGeometry relative="1" as="geometry" />
        </mxCell>
        <mxCell id="RqfBfrFVOrgx133IJ6Qx-27" value="" style="edgeStyle=orthogonalEdgeStyle;rounded=0;orthogonalLoop=1;jettySize=auto;html=1;" parent="1" source="RqfBfrFVOrgx133IJ6Qx-17" target="RqfBfrFVOrgx133IJ6Qx-26" edge="1">
          <mxGeometry relative="1" as="geometry" />
        </mxCell>
        <mxCell id="RqfBfrFVOrgx133IJ6Qx-17" value="16" style="ellipse;whiteSpace=wrap;html=1;" parent="1" vertex="1">
          <mxGeometry x="690" y="210" width="80" height="80" as="geometry" />
        </mxCell>
        <mxCell id="RqfBfrFVOrgx133IJ6Qx-19" value="TRUE" style="text;html=1;align=center;verticalAlign=middle;resizable=0;points=[];autosize=1;strokeColor=none;fillColor=none;" parent="1" vertex="1">
          <mxGeometry x="500" y="178" width="60" height="30" as="geometry" />
        </mxCell>
        <mxCell id="RqfBfrFVOrgx133IJ6Qx-20" value="FALSE" style="text;html=1;align=center;verticalAlign=middle;resizable=0;points=[];autosize=1;strokeColor=none;fillColor=none;" parent="1" vertex="1">
          <mxGeometry x="650" y="158" width="60" height="30" as="geometry" />
        </mxCell>
        <mxCell id="RqfBfrFVOrgx133IJ6Qx-21" value="20" style="ellipse;whiteSpace=wrap;html=1;" parent="1" vertex="1">
          <mxGeometry x="460" y="370" width="80" height="80" as="geometry" />
        </mxCell>
        <mxCell id="RqfBfrFVOrgx133IJ6Qx-23" style="edgeStyle=orthogonalEdgeStyle;rounded=0;orthogonalLoop=1;jettySize=auto;html=1;entryX=0.985;entryY=0.708;entryDx=0;entryDy=0;entryPerimeter=0;" parent="1" source="RqfBfrFVOrgx133IJ6Qx-21" target="RqfBfrFVOrgx133IJ6Qx-11" edge="1">
          <mxGeometry relative="1" as="geometry">
            <Array as="points">
              <mxPoint x="249" y="387" />
              <mxPoint x="249" y="387" />
            </Array>
          </mxGeometry>
        </mxCell>
        <mxCell id="RqfBfrFVOrgx133IJ6Qx-31" value="" style="edgeStyle=orthogonalEdgeStyle;rounded=0;orthogonalLoop=1;jettySize=auto;html=1;" parent="1" source="RqfBfrFVOrgx133IJ6Qx-24" target="RqfBfrFVOrgx133IJ6Qx-30" edge="1">
          <mxGeometry relative="1" as="geometry">
            <Array as="points">
              <mxPoint x="640" y="360" />
              <mxPoint x="710" y="360" />
            </Array>
          </mxGeometry>
        </mxCell>
        <mxCell id="RqfBfrFVOrgx133IJ6Qx-24" value="17" style="ellipse;whiteSpace=wrap;html=1;" parent="1" vertex="1">
          <mxGeometry x="600" y="260" width="80" height="80" as="geometry" />
        </mxCell>
        <mxCell id="RqfBfrFVOrgx133IJ6Qx-32" style="edgeStyle=orthogonalEdgeStyle;rounded=0;orthogonalLoop=1;jettySize=auto;html=1;entryX=1;entryY=0;entryDx=0;entryDy=0;" parent="1" source="RqfBfrFVOrgx133IJ6Qx-26" target="RqfBfrFVOrgx133IJ6Qx-30" edge="1">
          <mxGeometry relative="1" as="geometry" />
        </mxCell>
        <mxCell id="RqfBfrFVOrgx133IJ6Qx-26" value="18" style="ellipse;whiteSpace=wrap;html=1;" parent="1" vertex="1">
          <mxGeometry x="780" y="270" width="80" height="80" as="geometry" />
        </mxCell>
        <mxCell id="RqfBfrFVOrgx133IJ6Qx-28" value="TRUE" style="text;html=1;align=center;verticalAlign=middle;resizable=0;points=[];autosize=1;strokeColor=none;fillColor=none;" parent="1" vertex="1">
          <mxGeometry x="640" y="228" width="60" height="30" as="geometry" />
        </mxCell>
        <mxCell id="RqfBfrFVOrgx133IJ6Qx-29" value="FALSE" style="text;html=1;align=center;verticalAlign=middle;resizable=0;points=[];autosize=1;strokeColor=none;fillColor=none;" parent="1" vertex="1">
          <mxGeometry x="770" y="228" width="60" height="30" as="geometry" />
        </mxCell>
        <mxCell id="RqfBfrFVOrgx133IJ6Qx-33" style="edgeStyle=orthogonalEdgeStyle;rounded=0;orthogonalLoop=1;jettySize=auto;html=1;exitX=0;exitY=0.5;exitDx=0;exitDy=0;entryX=1;entryY=0.5;entryDx=0;entryDy=0;" parent="1" source="RqfBfrFVOrgx133IJ6Qx-30" target="RqfBfrFVOrgx133IJ6Qx-21" edge="1">
          <mxGeometry relative="1" as="geometry" />
        </mxCell>
        <mxCell id="RqfBfrFVOrgx133IJ6Qx-30" value="19" style="ellipse;whiteSpace=wrap;html=1;" parent="1" vertex="1">
          <mxGeometry x="700" y="370" width="80" height="80" as="geometry" />
        </mxCell>
      </root>
    </mxGraphModel>
  </diagram>
  <diagram id="-mEhXk-XSj4HrcFZM8xE" name="Page-2">
    <mxGraphModel dx="1909" dy="1129" grid="1" gridSize="10" guides="1" tooltips="1" connect="1" arrows="1" fold="1" page="1" pageScale="1" pageWidth="850" pageHeight="1100" math="0" shadow="0">
      <root>
        <mxCell id="0" />
        <mxCell id="1" parent="0" />
        <mxCell id="eNf_RkhmlmC6TZFMUzrV-10" style="edgeStyle=orthogonalEdgeStyle;rounded=0;orthogonalLoop=1;jettySize=auto;html=1;exitX=0.5;exitY=1;exitDx=0;exitDy=0;" edge="1" parent="1" source="eNf_RkhmlmC6TZFMUzrV-1" target="eNf_RkhmlmC6TZFMUzrV-5">
          <mxGeometry relative="1" as="geometry" />
        </mxCell>
        <mxCell id="eNf_RkhmlmC6TZFMUzrV-1" value="Read Count" style="swimlane;startSize=90;fillColor=#008a00;fontColor=#ffffff;strokeColor=#005700;gradientColor=none;swimlaneFillColor=#009900;" vertex="1" parent="1">
          <mxGeometry x="380" y="200" width="90" height="50" as="geometry" />
        </mxCell>
        <mxCell id="eNf_RkhmlmC6TZFMUzrV-8" style="edgeStyle=orthogonalEdgeStyle;rounded=0;orthogonalLoop=1;jettySize=auto;html=1;exitX=0.5;exitY=1;exitDx=0;exitDy=0;entryX=0.5;entryY=0;entryDx=0;entryDy=0;" edge="1" parent="1" source="eNf_RkhmlmC6TZFMUzrV-3" target="eNf_RkhmlmC6TZFMUzrV-4">
          <mxGeometry relative="1" as="geometry" />
        </mxCell>
        <mxCell id="eNf_RkhmlmC6TZFMUzrV-3" value="Index = 0" style="swimlane;startSize=90;fillColor=#008a00;fontColor=#ffffff;strokeColor=#005700;gradientColor=none;swimlaneFillColor=#009900;" vertex="1" parent="1">
          <mxGeometry x="380" y="10" width="90" height="50" as="geometry" />
        </mxCell>
        <mxCell id="eNf_RkhmlmC6TZFMUzrV-9" style="edgeStyle=orthogonalEdgeStyle;rounded=0;orthogonalLoop=1;jettySize=auto;html=1;exitX=0.5;exitY=1;exitDx=0;exitDy=0;" edge="1" parent="1" source="eNf_RkhmlmC6TZFMUzrV-4" target="eNf_RkhmlmC6TZFMUzrV-1">
          <mxGeometry relative="1" as="geometry" />
        </mxCell>
        <mxCell id="eNf_RkhmlmC6TZFMUzrV-4" value="Sum = 0" style="swimlane;startSize=90;fillColor=#008a00;fontColor=#ffffff;strokeColor=#005700;gradientColor=none;swimlaneFillColor=#009900;" vertex="1" parent="1">
          <mxGeometry x="380" y="100" width="90" height="50" as="geometry" />
        </mxCell>
        <mxCell id="eNf_RkhmlmC6TZFMUzrV-5" value="Read New" style="swimlane;startSize=90;fillColor=#008a00;fontColor=#ffffff;strokeColor=#005700;gradientColor=none;swimlaneFillColor=#009900;" vertex="1" parent="1">
          <mxGeometry x="380" y="300" width="90" height="50" as="geometry" />
        </mxCell>
        <mxCell id="eNf_RkhmlmC6TZFMUzrV-15" style="edgeStyle=orthogonalEdgeStyle;rounded=0;orthogonalLoop=1;jettySize=auto;html=1;exitX=1;exitY=1;exitDx=0;exitDy=0;" edge="1" parent="1" source="eNf_RkhmlmC6TZFMUzrV-7" target="eNf_RkhmlmC6TZFMUzrV-13">
          <mxGeometry relative="1" as="geometry" />
        </mxCell>
        <mxCell id="eNf_RkhmlmC6TZFMUzrV-17" value="No" style="edgeLabel;html=1;align=center;verticalAlign=middle;resizable=0;points=[];" vertex="1" connectable="0" parent="eNf_RkhmlmC6TZFMUzrV-15">
          <mxGeometry x="0.0419" y="-1" relative="1" as="geometry">
            <mxPoint as="offset" />
          </mxGeometry>
        </mxCell>
        <mxCell id="eNf_RkhmlmC6TZFMUzrV-18" style="edgeStyle=orthogonalEdgeStyle;rounded=0;orthogonalLoop=1;jettySize=auto;html=1;exitX=0;exitY=1;exitDx=0;exitDy=0;entryX=0.5;entryY=0;entryDx=0;entryDy=0;" edge="1" parent="1" source="eNf_RkhmlmC6TZFMUzrV-7" target="eNf_RkhmlmC6TZFMUzrV-12">
          <mxGeometry relative="1" as="geometry" />
        </mxCell>
        <mxCell id="eNf_RkhmlmC6TZFMUzrV-19" value="Yes" style="edgeLabel;html=1;align=center;verticalAlign=middle;resizable=0;points=[];" vertex="1" connectable="0" parent="eNf_RkhmlmC6TZFMUzrV-18">
          <mxGeometry x="-0.0689" relative="1" as="geometry">
            <mxPoint as="offset" />
          </mxGeometry>
        </mxCell>
        <mxCell id="eNf_RkhmlmC6TZFMUzrV-7" value="Index &amp;lt; = Count" style="rhombus;whiteSpace=wrap;html=1;fillColor=#008a00;fontColor=#ffffff;strokeColor=#005700;" vertex="1" parent="1">
          <mxGeometry x="358" y="410" width="135" height="80" as="geometry" />
        </mxCell>
        <mxCell id="eNf_RkhmlmC6TZFMUzrV-11" style="edgeStyle=orthogonalEdgeStyle;rounded=0;orthogonalLoop=1;jettySize=auto;html=1;exitX=0.5;exitY=1;exitDx=0;exitDy=0;entryX=0.48;entryY=0.095;entryDx=0;entryDy=0;entryPerimeter=0;" edge="1" parent="1" source="eNf_RkhmlmC6TZFMUzrV-5" target="eNf_RkhmlmC6TZFMUzrV-7">
          <mxGeometry relative="1" as="geometry" />
        </mxCell>
        <mxCell id="eNf_RkhmlmC6TZFMUzrV-27" style="edgeStyle=orthogonalEdgeStyle;rounded=0;orthogonalLoop=1;jettySize=auto;html=1;exitX=1;exitY=1;exitDx=0;exitDy=0;entryX=1;entryY=0.5;entryDx=0;entryDy=0;" edge="1" parent="1" source="eNf_RkhmlmC6TZFMUzrV-12" target="eNf_RkhmlmC6TZFMUzrV-21">
          <mxGeometry relative="1" as="geometry" />
        </mxCell>
        <mxCell id="eNf_RkhmlmC6TZFMUzrV-28" value="No" style="edgeLabel;html=1;align=center;verticalAlign=middle;resizable=0;points=[];" vertex="1" connectable="0" parent="eNf_RkhmlmC6TZFMUzrV-27">
          <mxGeometry x="-0.3193" y="-1" relative="1" as="geometry">
            <mxPoint as="offset" />
          </mxGeometry>
        </mxCell>
        <mxCell id="eNf_RkhmlmC6TZFMUzrV-12" value="New &amp;lt; 0" style="rhombus;whiteSpace=wrap;html=1;fillColor=#008a00;fontColor=#ffffff;strokeColor=#005700;" vertex="1" parent="1">
          <mxGeometry x="223" y="510" width="135" height="80" as="geometry" />
        </mxCell>
        <mxCell id="eNf_RkhmlmC6TZFMUzrV-16" style="edgeStyle=orthogonalEdgeStyle;rounded=0;orthogonalLoop=1;jettySize=auto;html=1;exitX=0.5;exitY=1;exitDx=0;exitDy=0;entryX=0.5;entryY=0;entryDx=0;entryDy=0;" edge="1" parent="1" source="eNf_RkhmlmC6TZFMUzrV-13" target="eNf_RkhmlmC6TZFMUzrV-14">
          <mxGeometry relative="1" as="geometry" />
        </mxCell>
        <mxCell id="eNf_RkhmlmC6TZFMUzrV-13" value="Print (&quot;There were....&quot;)" style="swimlane;startSize=90;fillColor=#008a00;fontColor=#ffffff;strokeColor=#005700;gradientColor=none;swimlaneFillColor=#009900;" vertex="1" parent="1">
          <mxGeometry x="493" y="530" width="147" height="50" as="geometry" />
        </mxCell>
        <mxCell id="eNf_RkhmlmC6TZFMUzrV-14" value="End" style="swimlane;startSize=90;fillColor=#008a00;fontColor=#ffffff;strokeColor=#005700;gradientColor=none;swimlaneFillColor=#009900;" vertex="1" parent="1">
          <mxGeometry x="521.5" y="640" width="90" height="50" as="geometry" />
        </mxCell>
        <mxCell id="eNf_RkhmlmC6TZFMUzrV-20" value="Sum = Sum +1" style="swimlane;startSize=90;fillColor=#008a00;fontColor=#ffffff;strokeColor=#005700;gradientColor=none;swimlaneFillColor=#009900;" vertex="1" parent="1">
          <mxGeometry x="140" y="640" width="147" height="50" as="geometry" />
        </mxCell>
        <mxCell id="eNf_RkhmlmC6TZFMUzrV-21" value="Index = Index +1 " style="swimlane;startSize=90;fillColor=#008a00;fontColor=#ffffff;strokeColor=#005700;gradientColor=none;swimlaneFillColor=#009900;" vertex="1" parent="1">
          <mxGeometry x="150" y="730" width="147" height="50" as="geometry" />
        </mxCell>
        <mxCell id="eNf_RkhmlmC6TZFMUzrV-23" style="edgeStyle=orthogonalEdgeStyle;rounded=0;orthogonalLoop=1;jettySize=auto;html=1;exitX=1;exitY=0.5;exitDx=0;exitDy=0;entryX=0.5;entryY=1;entryDx=0;entryDy=0;" edge="1" parent="1" source="eNf_RkhmlmC6TZFMUzrV-22" target="eNf_RkhmlmC6TZFMUzrV-7">
          <mxGeometry relative="1" as="geometry" />
        </mxCell>
        <mxCell id="eNf_RkhmlmC6TZFMUzrV-22" value="Read new " style="swimlane;startSize=90;fillColor=#008a00;fontColor=#ffffff;strokeColor=#005700;gradientColor=none;swimlaneFillColor=#009900;" vertex="1" parent="1">
          <mxGeometry x="233" y="860" width="147" height="50" as="geometry" />
        </mxCell>
        <mxCell id="eNf_RkhmlmC6TZFMUzrV-24" style="edgeStyle=orthogonalEdgeStyle;rounded=0;orthogonalLoop=1;jettySize=auto;html=1;exitX=0.5;exitY=1;exitDx=0;exitDy=0;entryX=0.544;entryY=0.2;entryDx=0;entryDy=0;entryPerimeter=0;" edge="1" parent="1" source="eNf_RkhmlmC6TZFMUzrV-12" target="eNf_RkhmlmC6TZFMUzrV-20">
          <mxGeometry relative="1" as="geometry" />
        </mxCell>
        <mxCell id="eNf_RkhmlmC6TZFMUzrV-29" value="Yes" style="edgeLabel;html=1;align=center;verticalAlign=middle;resizable=0;points=[];" vertex="1" connectable="0" parent="eNf_RkhmlmC6TZFMUzrV-24">
          <mxGeometry x="0.105" y="6" relative="1" as="geometry">
            <mxPoint as="offset" />
          </mxGeometry>
        </mxCell>
        <mxCell id="eNf_RkhmlmC6TZFMUzrV-25" style="edgeStyle=orthogonalEdgeStyle;rounded=0;orthogonalLoop=1;jettySize=auto;html=1;exitX=0.5;exitY=1;exitDx=0;exitDy=0;entryX=0.463;entryY=0.2;entryDx=0;entryDy=0;entryPerimeter=0;" edge="1" parent="1" source="eNf_RkhmlmC6TZFMUzrV-20" target="eNf_RkhmlmC6TZFMUzrV-21">
          <mxGeometry relative="1" as="geometry" />
        </mxCell>
        <mxCell id="eNf_RkhmlmC6TZFMUzrV-26" style="edgeStyle=orthogonalEdgeStyle;rounded=0;orthogonalLoop=1;jettySize=auto;html=1;exitX=0.5;exitY=1;exitDx=0;exitDy=0;entryX=0.34;entryY=-0.048;entryDx=0;entryDy=0;entryPerimeter=0;" edge="1" parent="1" source="eNf_RkhmlmC6TZFMUzrV-21" target="eNf_RkhmlmC6TZFMUzrV-22">
          <mxGeometry relative="1" as="geometry" />
        </mxCell>
      </root>
    </mxGraphModel>
  </diagram>
  <diagram id="8CFBA1M8YuNAhJkVNfEi" name="Page-3">
    <mxGraphModel dx="2350" dy="887" grid="1" gridSize="10" guides="1" tooltips="1" connect="1" arrows="1" fold="1" page="1" pageScale="1" pageWidth="850" pageHeight="1100" math="0" shadow="0">
      <root>
        <mxCell id="0" />
        <mxCell id="1" parent="0" />
        <mxCell id="STxnC4UENKkiqGh6GsrO-3" value="" style="edgeStyle=orthogonalEdgeStyle;rounded=0;orthogonalLoop=1;jettySize=auto;html=1;" edge="1" parent="1" source="STxnC4UENKkiqGh6GsrO-1" target="STxnC4UENKkiqGh6GsrO-2">
          <mxGeometry relative="1" as="geometry" />
        </mxCell>
        <mxCell id="STxnC4UENKkiqGh6GsrO-6" value="T" style="edgeLabel;html=1;align=center;verticalAlign=middle;resizable=0;points=[];" vertex="1" connectable="0" parent="STxnC4UENKkiqGh6GsrO-3">
          <mxGeometry x="-0.265" y="2" relative="1" as="geometry">
            <mxPoint as="offset" />
          </mxGeometry>
        </mxCell>
        <mxCell id="STxnC4UENKkiqGh6GsrO-5" value="" style="edgeStyle=orthogonalEdgeStyle;rounded=0;orthogonalLoop=1;jettySize=auto;html=1;" edge="1" parent="1" source="STxnC4UENKkiqGh6GsrO-1" target="STxnC4UENKkiqGh6GsrO-4">
          <mxGeometry relative="1" as="geometry" />
        </mxCell>
        <mxCell id="STxnC4UENKkiqGh6GsrO-7" value="F" style="edgeLabel;html=1;align=center;verticalAlign=middle;resizable=0;points=[];" vertex="1" connectable="0" parent="STxnC4UENKkiqGh6GsrO-5">
          <mxGeometry x="-0.1287" relative="1" as="geometry">
            <mxPoint as="offset" />
          </mxGeometry>
        </mxCell>
        <mxCell id="STxnC4UENKkiqGh6GsrO-1" value="1-5" style="ellipse;whiteSpace=wrap;html=1;aspect=fixed;" vertex="1" parent="1">
          <mxGeometry x="360" y="30" width="80" height="80" as="geometry" />
        </mxCell>
        <mxCell id="STxnC4UENKkiqGh6GsrO-27" value="" style="edgeStyle=orthogonalEdgeStyle;rounded=0;orthogonalLoop=1;jettySize=auto;html=1;" edge="1" parent="1" source="STxnC4UENKkiqGh6GsrO-2" target="STxnC4UENKkiqGh6GsrO-26">
          <mxGeometry relative="1" as="geometry" />
        </mxCell>
        <mxCell id="STxnC4UENKkiqGh6GsrO-2" value="7" style="ellipse;whiteSpace=wrap;html=1;aspect=fixed;" vertex="1" parent="1">
          <mxGeometry x="490" y="140" width="80" height="80" as="geometry" />
        </mxCell>
        <mxCell id="STxnC4UENKkiqGh6GsrO-9" value="" style="edgeStyle=orthogonalEdgeStyle;rounded=0;orthogonalLoop=1;jettySize=auto;html=1;" edge="1" parent="1" source="STxnC4UENKkiqGh6GsrO-4" target="STxnC4UENKkiqGh6GsrO-8">
          <mxGeometry relative="1" as="geometry" />
        </mxCell>
        <mxCell id="STxnC4UENKkiqGh6GsrO-4" value="8" style="ellipse;whiteSpace=wrap;html=1;aspect=fixed;" vertex="1" parent="1">
          <mxGeometry x="160" y="140" width="80" height="80" as="geometry" />
        </mxCell>
        <mxCell id="STxnC4UENKkiqGh6GsrO-11" value="" style="edgeStyle=orthogonalEdgeStyle;rounded=0;orthogonalLoop=1;jettySize=auto;html=1;" edge="1" parent="1" source="STxnC4UENKkiqGh6GsrO-8" target="STxnC4UENKkiqGh6GsrO-10">
          <mxGeometry relative="1" as="geometry" />
        </mxCell>
        <mxCell id="STxnC4UENKkiqGh6GsrO-13" value="" style="edgeStyle=orthogonalEdgeStyle;rounded=0;orthogonalLoop=1;jettySize=auto;html=1;" edge="1" parent="1" source="STxnC4UENKkiqGh6GsrO-8" target="STxnC4UENKkiqGh6GsrO-12">
          <mxGeometry relative="1" as="geometry" />
        </mxCell>
        <mxCell id="STxnC4UENKkiqGh6GsrO-8" value="10" style="ellipse;whiteSpace=wrap;html=1;aspect=fixed;" vertex="1" parent="1">
          <mxGeometry x="160" y="300" width="80" height="80" as="geometry" />
        </mxCell>
        <mxCell id="STxnC4UENKkiqGh6GsrO-24" style="edgeStyle=orthogonalEdgeStyle;rounded=0;orthogonalLoop=1;jettySize=auto;html=1;exitX=0.5;exitY=1;exitDx=0;exitDy=0;entryX=0.5;entryY=0;entryDx=0;entryDy=0;" edge="1" parent="1" source="STxnC4UENKkiqGh6GsrO-10" target="STxnC4UENKkiqGh6GsrO-18">
          <mxGeometry relative="1" as="geometry" />
        </mxCell>
        <mxCell id="STxnC4UENKkiqGh6GsrO-10" value="11" style="ellipse;whiteSpace=wrap;html=1;aspect=fixed;" vertex="1" parent="1">
          <mxGeometry x="320" y="300" width="80" height="80" as="geometry" />
        </mxCell>
        <mxCell id="STxnC4UENKkiqGh6GsrO-17" value="" style="edgeStyle=orthogonalEdgeStyle;rounded=0;orthogonalLoop=1;jettySize=auto;html=1;" edge="1" parent="1" source="STxnC4UENKkiqGh6GsrO-12" target="STxnC4UENKkiqGh6GsrO-16">
          <mxGeometry relative="1" as="geometry" />
        </mxCell>
        <mxCell id="STxnC4UENKkiqGh6GsrO-19" value="" style="edgeStyle=orthogonalEdgeStyle;rounded=0;orthogonalLoop=1;jettySize=auto;html=1;" edge="1" parent="1" source="STxnC4UENKkiqGh6GsrO-12" target="STxnC4UENKkiqGh6GsrO-18">
          <mxGeometry relative="1" as="geometry">
            <Array as="points">
              <mxPoint x="70" y="560" />
            </Array>
          </mxGeometry>
        </mxCell>
        <mxCell id="STxnC4UENKkiqGh6GsrO-12" value="12" style="ellipse;whiteSpace=wrap;html=1;aspect=fixed;" vertex="1" parent="1">
          <mxGeometry x="20" y="300" width="80" height="80" as="geometry" />
        </mxCell>
        <mxCell id="STxnC4UENKkiqGh6GsrO-14" value="T" style="text;html=1;align=center;verticalAlign=middle;resizable=0;points=[];autosize=1;strokeColor=none;fillColor=none;" vertex="1" parent="1">
          <mxGeometry x="245" y="318" width="30" height="30" as="geometry" />
        </mxCell>
        <mxCell id="STxnC4UENKkiqGh6GsrO-15" value="F" style="text;html=1;align=center;verticalAlign=middle;resizable=0;points=[];autosize=1;strokeColor=none;fillColor=none;" vertex="1" parent="1">
          <mxGeometry x="135" y="308" width="30" height="30" as="geometry" />
        </mxCell>
        <mxCell id="STxnC4UENKkiqGh6GsrO-29" style="edgeStyle=orthogonalEdgeStyle;rounded=0;orthogonalLoop=1;jettySize=auto;html=1;exitX=0.5;exitY=1;exitDx=0;exitDy=0;" edge="1" parent="1" source="STxnC4UENKkiqGh6GsrO-16" target="STxnC4UENKkiqGh6GsrO-26">
          <mxGeometry relative="1" as="geometry">
            <Array as="points">
              <mxPoint x="-50" y="650" />
              <mxPoint x="530" y="650" />
            </Array>
          </mxGeometry>
        </mxCell>
        <mxCell id="STxnC4UENKkiqGh6GsrO-16" value="13" style="ellipse;whiteSpace=wrap;html=1;aspect=fixed;" vertex="1" parent="1">
          <mxGeometry x="-90" y="470" width="80" height="80" as="geometry" />
        </mxCell>
        <mxCell id="STxnC4UENKkiqGh6GsrO-28" style="edgeStyle=orthogonalEdgeStyle;rounded=0;orthogonalLoop=1;jettySize=auto;html=1;exitX=1;exitY=0.5;exitDx=0;exitDy=0;" edge="1" parent="1" source="STxnC4UENKkiqGh6GsrO-18" target="STxnC4UENKkiqGh6GsrO-4">
          <mxGeometry relative="1" as="geometry">
            <Array as="points">
              <mxPoint x="430" y="560" />
              <mxPoint x="430" y="180" />
            </Array>
          </mxGeometry>
        </mxCell>
        <mxCell id="STxnC4UENKkiqGh6GsrO-18" value="14" style="ellipse;whiteSpace=wrap;html=1;aspect=fixed;" vertex="1" parent="1">
          <mxGeometry x="150" y="520" width="80" height="80" as="geometry" />
        </mxCell>
        <mxCell id="STxnC4UENKkiqGh6GsrO-22" value="F" style="text;html=1;align=center;verticalAlign=middle;resizable=0;points=[];autosize=1;strokeColor=none;fillColor=none;" vertex="1" parent="1">
          <mxGeometry x="65" y="378" width="30" height="30" as="geometry" />
        </mxCell>
        <mxCell id="STxnC4UENKkiqGh6GsrO-23" value="T" style="text;html=1;align=center;verticalAlign=middle;resizable=0;points=[];autosize=1;strokeColor=none;fillColor=none;" vertex="1" parent="1">
          <mxGeometry x="-5" y="318" width="30" height="30" as="geometry" />
        </mxCell>
        <mxCell id="STxnC4UENKkiqGh6GsrO-26" value="16" style="ellipse;whiteSpace=wrap;html=1;aspect=fixed;" vertex="1" parent="1">
          <mxGeometry x="490" y="300" width="80" height="80" as="geometry" />
        </mxCell>
      </root>
    </mxGraphModel>
  </diagram>
</mxfile>
